<?xml version="1.0" standalone="no"?>
<!DOCTYPE svg PUBLIC "-//W3C//DTD SVG 20010904//EN"
 "http://www.w3.org/TR/2001/REC-SVG-20010904/DTD/svg10.dtd">
<svg version="1.0" xmlns="http://www.w3.org/2000/svg"
 width="480.000000pt" height="480.000000pt" viewBox="0 0 480.000000 480.000000"
 preserveAspectRatio="xMidYMid meet">
<metadata>
Created by potrace 1.16, written by Peter Selinger 2001-2019
</metadata>
<g transform="translate(0.000000,480.000000) scale(0.100000,-0.100000)"
fill="#000000" stroke="none">
<path d="M2475 4294 c-33 -8 -94 -31 -135 -51 -72 -35 -102 -63 -801 -762
l-727 -726 -40 -85 c-48 -101 -62 -163 -62 -270 0 -107 14 -169 62 -270 l40
-85 727 -726 c699 -699 729 -727 801 -762 142 -68 281 -84 424 -47 146 37 177
60 456 337 l255 253 -212 212 -213 213 -215 -215 -215 -215 -653 653 -652 652
652 652 653 653 430 -430 c236 -236 430 -434 430 -440 0 -5 -194 -203 -430
-440 l-430 -430 215 -215 215 -215 446 445 c305 305 460 467 493 516 69 102
92 176 98 309 6 129 -8 198 -64 309 -32 65 -77 113 -535 572 -530 531 -554
552 -688 595 -86 28 -242 34 -325 13z"/>
</g>
</svg>
